<svg width="16" height="16" viewBox="0 0 16 16" fill="none" xmlns="http://www.w3.org/2000/svg">
<path fill-rule="evenodd" clip-rule="evenodd" d="M14.6693 7.9987C14.6693 11.6806 11.6845 14.6654 8.0026 14.6654C4.32071 14.6654 1.33594 11.6806 1.33594 7.9987C1.33594 4.3168 4.32071 1.33203 8.0026 1.33203C11.6845 1.33203 14.6693 4.3168 14.6693 7.9987ZM10.6895 5.97848C10.8848 6.17374 10.8848 6.49032 10.6895 6.68558L7.35616 10.0189C7.1609 10.2142 6.84431 10.2142 6.64905 10.0189L5.31572 8.68559C5.12046 8.49032 5.12046 8.17374 5.31572 7.97848C5.51098 7.78322 5.82756 7.78322 6.02282 7.97848L7.0026 8.95826L8.49249 7.46837L9.98238 5.97848C10.1776 5.78322 10.4942 5.78322 10.6895 5.97848Z" fill="#6CCD75"/>
</svg>
