<svg width="20" height="20" viewBox="0 0 20 20" fill="none" xmlns="http://www.w3.org/2000/svg">
<path d="M1.66406 9.9987C1.66406 6.856 1.66406 5.28465 2.64037 4.30834C3.61668 3.33203 5.18803 3.33203 8.33073 3.33203H11.6641C14.8068 3.33203 16.3781 3.33203 17.3544 4.30834C18.3307 5.28465 18.3307 6.856 18.3307 9.9987C18.3307 13.1414 18.3307 14.7127 17.3544 15.6891C16.3781 16.6654 14.8068 16.6654 11.6641 16.6654H8.33073C5.18803 16.6654 3.61668 16.6654 2.64037 15.6891C1.66406 14.7127 1.66406 13.1414 1.66406 9.9987Z" stroke="#1C274C" stroke-width="1.5"/>
<path d="M5 6.66797L6.79908 8.1672C8.32961 9.44264 9.09488 10.0804 10 10.0804C10.9051 10.0804 11.6704 9.44264 13.2009 8.1672L15 6.66797" stroke="#1C274C" stroke-width="1.5" stroke-linecap="round"/>
</svg>
