<svg width="20" height="20" viewBox="0 0 20 20" fill="none" xmlns="http://www.w3.org/2000/svg">
<g clip-path="url(#clip0_1587_204)">
<g clip-path="url(#clip1_1587_204)">
<path d="M1.66406 13.332C1.66406 10.975 1.66406 9.7965 2.3963 9.06426C3.12853 8.33203 4.30704 8.33203 6.66406 8.33203H13.3307C15.6878 8.33203 16.8663 8.33203 17.5985 9.06426C18.3307 9.7965 18.3307 10.975 18.3307 13.332C18.3307 15.6891 18.3307 16.8676 17.5985 17.5998C16.8663 18.332 15.6878 18.332 13.3307 18.332H6.66406C4.30704 18.332 3.12853 18.332 2.3963 17.5998C1.66406 16.8676 1.66406 15.6891 1.66406 13.332Z" stroke="#25292E" stroke-width="1.5"/>
<path d="M5 8.33464V6.66797C5 3.90655 7.23858 1.66797 10 1.66797C12.7614 1.66797 15 3.90655 15 6.66797V8.33464" stroke="#25292E" stroke-width="1.5" stroke-linecap="round"/>
</g>
</g>
<defs>
<clipPath id="clip0_1587_204">
<rect width="20" height="20" fill="white"/>
</clipPath>
<clipPath id="clip1_1587_204">
<rect width="20" height="20" fill="white"/>
</clipPath>
</defs>
</svg>
